<svg width="100" height="100" viewBox="0 0 100 100" fill="none" xmlns="http://www.w3.org/2000/svg">
<path d="M58.3332 9.45654V26.6671C58.3332 29.0007 58.3332 30.1675 58.7873 31.0587C59.1869 31.8427 59.824 32.4802 60.6082 32.8797C61.4994 33.3338 62.6661 33.3338 64.9998 33.3338H82.2102M49.9998 75.0002V50.0002M37.4998 62.5002H62.4998M58.3332 8.3335H36.6665C29.6658 8.3335 26.1655 8.3335 23.4916 9.69591C21.1396 10.8943 19.2273 12.8066 18.0289 15.1586C16.6665 17.8325 16.6665 21.3328 16.6665 28.3335V71.6668C16.6665 78.6677 16.6665 82.1677 18.0289 84.8418C19.2273 87.1939 21.1396 89.106 23.4916 90.3043C26.1655 91.6668 29.6658 91.6668 36.6665 91.6668H63.3332C70.334 91.6668 73.834 91.6668 76.5082 90.3043C78.8602 89.106 80.7723 87.1939 81.9707 84.8418C83.3332 82.1677 83.3332 78.6677 83.3332 71.6668V33.3335L58.3332 8.3335Z" stroke="grey" stroke-width="8.33333" stroke-linecap="round" stroke-linejoin="round"/>
</svg>
