<svg width="100" height="100" viewBox="0 0 100 100" fill="none" xmlns="http://www.w3.org/2000/svg">
    <path d="M50.0002 85.301C54.4231 89.2598 60.2639 91.6668 66.6668 91.6668C80.4739 91.6668 91.6668 80.4739 91.6668 66.6668C91.6668 55.1381 83.8631 45.4318 73.2493 42.5427M26.7509 42.5427C16.1374 45.4318 8.3335 55.1381 8.3335 66.6668C8.3335 80.4739 19.5264 91.6668 33.3335 91.6668C47.1406 91.6668 58.3335 80.4739 58.3335 66.6668C58.3335 63.4148 57.7127 60.3077 56.5827 57.4577M75.0002 33.3335C75.0002 47.1406 63.8073 58.3335 50.0002 58.3335C36.193 58.3335 25.0002 47.1406 25.0002 33.3335C25.0002 19.5264 36.193 8.3335 50.0002 8.3335C63.8073 8.3335 75.0002 19.5264 75.0002 33.3335Z" stroke="grey" stroke-width="8.33333" stroke-linecap="round" stroke-linejoin="round"/>
</svg>
