<svg width="100" height="100" viewBox="0 0 100 100" fill="none" xmlns="http://www.w3.org/2000/svg">
    <path d="M33.3335 33.3335V21.6668C33.3335 16.9997 33.3335 14.6662 34.2418 12.8836C35.0407 11.3155 36.3155 10.0407 37.8836 9.24179C39.6662 8.3335 41.9997 8.3335 46.6668 8.3335H78.3335C83.0006 8.3335 85.3343 8.3335 87.1168 9.24179C88.6848 10.0407 89.9598 11.3155 90.7585 12.8836C91.6668 14.6662 91.6668 16.9997 91.6668 21.6668V53.3335C91.6668 58.0006 91.6668 60.3343 90.7585 62.1168C89.9598 63.6848 88.6848 64.9597 87.1168 65.7585C85.3343 66.6668 83.0006 66.6668 78.3335 66.6668H66.6668M21.6668 91.6668H53.3335C58.0006 91.6668 60.3343 91.6668 62.1168 90.7585C63.6848 89.9598 64.9597 88.6848 65.7585 87.1168C66.6668 85.3343 66.6668 83.0006 66.6668 78.3335V46.6668C66.6668 41.9997 66.6668 39.6662 65.7585 37.8836C64.9597 36.3155 63.6848 35.0407 62.1168 34.2418C60.3343 33.3335 58.0006 33.3335 53.3335 33.3335H21.6668C16.9997 33.3335 14.6662 33.3335 12.8836 34.2418C11.3155 35.0407 10.0407 36.3155 9.24179 37.8836C8.3335 39.6662 8.3335 41.9997 8.3335 46.6668V78.3335C8.3335 83.0006 8.3335 85.3343 9.24179 87.1168C10.0407 88.6848 11.3155 89.9598 12.8836 90.7585C14.6662 91.6668 16.9997 91.6668 21.6668 91.6668Z" stroke="grey" stroke-width="8.33333" stroke-linecap="round" stroke-linejoin="round"/>
</svg>
