<svg width="100" height="100" viewBox="0 0 100 100" fill="none" xmlns="http://www.w3.org/2000/svg">
<path d="M75 41.6658L58.3333 24.9991M10.4165 89.5825L24.518 88.0158C26.2409 87.8241 27.1023 87.7283 27.9075 87.4679C28.6219 87.2366 29.3017 86.91 29.9285 86.4966C30.635 86.0304 31.2479 85.4179 32.4737 84.1921L87.5 29.1658C92.1025 24.5634 92.1025 17.1015 87.5 12.4991C82.8975 7.89677 75.4358 7.89677 70.8333 12.4991L15.807 67.5254C14.5813 68.7512 13.9684 69.3637 13.5025 70.0704C13.0891 70.6975 12.7624 71.3771 12.5311 72.0916C12.2705 72.8966 12.1748 73.7579 11.9833 75.4808L10.4165 89.5825Z" stroke="grey" stroke-width="8.33333" stroke-linecap="round" stroke-linejoin="round"/>
</svg>
