<svg width="100" height="100" viewBox="0 0 100 100" fill="none" xmlns="http://www.w3.org/2000/svg">
<path d="M50.002 2.77832C52.3003 2.77865 54.3614 4.19558 55.1865 6.34082L63.5703 28.1367L64.3662 30.1816C65.0158 31.8158 65.2788 32.343 65.5879 32.7783C66.0379 33.4108 66.5906 33.9644 67.2227 34.4141C67.8033 34.8268 68.5467 35.1568 71.8662 36.4336L93.6631 44.8164C95.808 45.6419 97.2236 47.7036 97.2236 50.002C97.2233 52.3001 95.8079 54.3612 93.6631 55.1865L71.8662 63.5703C68.5487 64.8463 67.8045 65.1744 67.2236 65.5869L67.2246 65.5879C66.5915 66.0383 66.0383 66.5915 65.5879 67.2246C65.1754 67.8054 64.8461 68.5491 63.5703 71.8662L55.1865 93.6631C54.3612 95.8079 52.3001 97.2233 50.002 97.2236C47.7036 97.2236 45.6419 95.808 44.8164 93.6631L36.4336 71.8662C35.1568 68.5467 34.8268 67.8043 34.4141 67.2236C33.9644 66.5916 33.4108 66.0379 32.7783 65.5879C32.1978 65.1757 31.4528 64.8457 28.1367 63.5703L6.34082 55.1865C4.19558 54.3614 2.77865 52.3003 2.77832 50.002C2.77833 47.7032 4.19532 45.6416 6.34082 44.8164L28.1367 36.4336C31.457 35.1566 32.1988 34.8277 32.7793 34.415L33.0127 34.2412C33.5485 33.8254 34.0214 33.3329 34.415 32.7793L34.5674 32.5498C34.9243 31.9737 35.3158 31.0429 36.4336 28.1367L44.8164 6.34082L44.8975 6.1416C45.7708 4.10803 47.7751 2.77833 50.002 2.77832Z" fill="grey"/>
</svg>
