<svg width="100" height="101" viewBox="0 0 100 101" fill="none" xmlns="http://www.w3.org/2000/svg">
<path fill-rule="evenodd" clip-rule="evenodd" d="M86.7289 0.457578C88.3276 0.0817049 90.2963 -0.2349 92.2928 0.237406L93.1468 0.489956L94.2337 0.949727C96.6795 2.14677 98.5869 4.25831 99.5128 6.85551C100.327 9.14108 99.9679 11.4572 99.5387 13.2858C99.0928 15.1844 98.3088 17.537 97.4038 20.2536L80.3111 71.5601C79.8646 72.9007 79.389 74.4666 78.4737 75.8082C77.7395 76.8829 76.8106 77.8122 75.7371 78.5474C74.3969 79.4641 72.8326 79.9395 71.493 80.3864L20.2344 97.4951C17.5201 98.401 15.1702 99.1855 13.2731 99.6321C11.4459 100.062 9.13311 100.421 6.84882 99.6062C3.88125 98.5467 1.54696 96.2018 0.489208 93.2341C-0.323366 90.9489 0.0277632 88.6383 0.45686 86.8103C0.902793 84.9117 1.69359 82.5596 2.5983 79.8425L19.6845 28.5295C20.1303 27.19 20.6067 25.6289 21.5219 24.2879C22.2564 23.2136 23.1915 22.2837 24.265 21.5487C25.6051 20.633 27.1644 20.1494 28.5026 19.7032L79.7676 2.60102C82.4826 1.69534 84.8321 0.903727 86.7289 0.457578ZM88.9027 9.72422C87.5283 10.0476 85.6642 10.6624 82.7695 11.6281C70.0974 15.8561 44.6782 24.3577 31.0014 29.0125C30.3019 29.2506 30.0992 30.1373 30.6201 30.6614L69.2465 69.5258C69.7705 70.0529 70.6609 69.8599 70.8985 69.1557C74.5543 58.3201 84.6995 28.3111 88.3851 17.2424C89.3493 14.3482 89.9642 12.4851 90.2872 11.11C90.4384 10.4654 90.47 10.0979 90.4813 9.93145C90.3876 9.75513 90.2513 9.61637 90.0737 9.52348C89.9055 9.53513 89.5417 9.574 88.9027 9.72422Z" fill="#00EE63"/>
</svg>
