<svg width="100" height="100" viewBox="0 0 100 100" fill="none" xmlns="http://www.w3.org/2000/svg">
    <path d="M41.6668 73.5777V83.3335C41.6668 87.936 45.3977 91.6668 50.0002 91.6668C54.6027 91.6668 58.3335 87.936 58.3335 83.3335V73.5777M50.0002 8.3335V12.5002M12.5002 50.0002H8.3335M22.9168 22.9168L20.4164 20.4164M77.0835 22.9168L79.5843 20.4164M91.6668 50.0002H87.5002M75.0002 50.0002C75.0002 63.8073 63.8073 75.0002 50.0002 75.0002C36.193 75.0002 25.0002 63.8073 25.0002 50.0002C25.0002 36.193 36.193 25.0002 50.0002 25.0002C63.8073 25.0002 75.0002 36.193 75.0002 50.0002Z" stroke="grey" stroke-width="8.33333" stroke-linecap="round" stroke-linejoin="round"/>
</svg>
