<svg width="100" height="100" viewBox="0 0 100 100" fill="none" xmlns="http://www.w3.org/2000/svg">
    <path d="M12.4458 68.6662C17.9025 69.0522 21.0489 74.0109 21.0489 74.0109C25.8989 82.3554 33.774 79.9419 36.8688 78.5485M63.9512 75.6442C63.9512 78.3677 63.9417 84.3038 63.9298 88.0414C63.9252 89.4731 62.763 90.6269 61.3313 90.6269H39.487C38.0551 90.6269 36.8928 89.4728 36.8883 88.0409C36.8764 84.3032 36.8666 78.3675 36.8666 75.6442C36.8666 70.5537 38.6059 67.2229 40.5554 65.5368C28.4491 64.1841 15.7399 59.5729 15.7399 38.5983C15.7399 32.6387 17.8393 27.7634 21.3261 23.9489C20.7678 22.5675 18.9033 17.0148 21.868 9.49876C21.868 9.49876 26.4221 8.03179 36.8018 15.1009C41.1462 13.8865 45.7897 13.2848 50.4092 13.2606C55.028 13.2848 59.6722 13.8859 64.016 15.1009C74.3957 8.03179 78.9503 9.49876 78.9503 9.49876C81.915 17.0148 80.0505 22.5675 79.4922 23.9489C82.979 27.7634 85.0784 32.6387 85.0784 38.5983C85.0784 59.5729 72.3687 64.1841 60.2624 65.5368C62.2125 67.2229 63.9512 70.5537 63.9512 75.6442Z" stroke="grey" stroke-width="8.33" stroke-linecap="round" stroke-linejoin="round"/>
</svg>
