<svg width="100" height="100" viewBox="0 0 100 100" fill="none" xmlns="http://www.w3.org/2000/svg">
<path d="M41.6665 50.0005C41.6665 45.3981 45.3981 41.6665 50.0005 41.6665C54.6028 41.6667 58.3335 45.3982 58.3335 50.0005C58.3333 54.6027 54.6027 58.3333 50.0005 58.3335C45.3982 58.3335 41.6667 54.6028 41.6665 50.0005Z" fill="grey"/>
<path d="M70.833 50.0005C70.833 45.3981 74.5646 41.6665 79.167 41.6665C83.7693 41.6667 87.5 45.3982 87.5 50.0005C87.4998 54.6027 83.7692 58.3333 79.167 58.3335C74.5647 58.3335 70.8332 54.6028 70.833 50.0005Z" fill="grey"/>
<path d="M12.4995 50.0005C12.4995 45.398 16.2312 41.6665 20.8335 41.6665C25.4356 41.6667 29.1665 45.3981 29.1665 50.0005C29.1663 54.6027 25.4355 58.3333 20.8335 58.3335C16.2313 58.3335 12.4997 54.6028 12.4995 50.0005Z" fill="grey"/>
</svg>
